<svg width="32" height="32" viewBox="0 0 32 32" fill="none" xmlns="http://www.w3.org/2000/svg">
<path d="M20.4101 21.8112C20.1588 22.1714 19.8361 22.4762 19.4609 22.7048C19.0509 22.9546 18.5927 23.0636 18.0478 23.1159C17.5108 23.1674 16.8408 23.1667 15.9951 23.1667C15.1484 23.1667 14.478 23.1675 13.9404 23.1159C13.3947 23.0635 12.9358 22.9541 12.5253 22.7038L12.7861 22.277L13.0468 21.8493C13.2759 21.989 13.5655 22.0747 14.0361 22.1198C14.5148 22.1657 15.129 22.1667 15.9951 22.1667C16.8602 22.1667 17.4739 22.1666 17.9521 22.1208C18.4222 22.0757 18.7114 21.9897 18.9404 21.8503C19.197 21.6939 19.4188 21.4856 19.5908 21.2389L20.4101 21.8112ZM10.9697 11.1677C11.2453 11.151 11.4823 11.3608 11.499 11.6364L11.9023 18.3132C11.9545 19.1778 11.9917 19.7911 12.0664 20.2663C12.1398 20.7334 12.2432 21.0177 12.3964 21.238C12.5682 21.4847 12.7903 21.6928 13.0468 21.8493L12.5253 22.7038C12.15 22.4749 11.8263 22.1701 11.5751 21.8093C11.3005 21.4147 11.1642 20.9631 11.079 20.4216C10.9952 19.8881 10.9553 19.2189 10.9042 18.3737L10.5009 11.697C10.4843 11.4214 10.6941 11.1844 10.9697 11.1677ZM21.0312 11.1677C21.3066 11.1849 21.516 11.4224 21.499 11.6979L21.0859 18.3805C21.0337 19.2246 20.9927 19.8937 20.9082 20.4264C20.8224 20.967 20.6846 21.4174 20.4101 21.8112L19.5908 21.2389C19.7439 21.0191 19.8469 20.7353 19.9208 20.2692C19.9961 19.7948 20.0344 19.1823 20.0878 18.319L20.5009 11.6354C20.5182 11.36 20.7557 11.1506 21.0312 11.1677Z" fill="#6B6671"/>
<path d="M16.0234 8.83335C16.361 8.83335 16.6472 8.83269 16.8838 8.85385C17.1297 8.87588 17.3593 8.92385 17.582 9.0394C17.6697 9.08491 17.7537 9.13749 17.833 9.19663L17.9736 9.31577C18.1049 9.44129 18.2092 9.58549 18.3047 9.74448C18.427 9.94827 18.5509 10.2062 18.6982 10.5101L19.0166 11.1664H22C22.276 11.1664 22.4998 11.3904 22.5 11.6664C22.5 11.9425 22.2761 12.1664 22 12.1664H10C9.72386 12.1664 9.5 11.9425 9.5 11.6664C9.50018 11.3904 9.72397 11.1664 10 11.1664H13.0479L13.3174 10.5736C13.4609 10.2587 13.5817 9.99178 13.7021 9.78061C13.8273 9.56118 13.9702 9.36849 14.1738 9.21225C14.2541 9.15067 14.3394 9.09571 14.4287 9.04819C14.6553 8.92769 14.89 8.87774 15.1416 8.85483C15.3838 8.83278 15.6772 8.83335 16.0234 8.83335ZM16.0234 9.83335C15.6592 9.83335 15.4189 9.83395 15.2324 9.85092C15.0554 9.86704 14.9653 9.89543 14.8984 9.931C14.8578 9.95261 14.8187 9.97722 14.7822 10.0052C14.7222 10.0513 14.6592 10.1216 14.5713 10.2757C14.4785 10.4383 14.3786 10.6572 14.2275 10.9886L14.1465 11.1664H17.9053L17.7988 10.9457C17.6439 10.626 17.5413 10.4157 17.4473 10.2591C17.3581 10.1106 17.2949 10.0428 17.2354 9.99838L17.1211 9.9271L17.0664 9.90268C17.0057 9.87988 16.9234 9.86152 16.7939 9.84995C16.6121 9.83371 16.3783 9.83335 16.0234 9.83335Z" fill="#6B6671"/>
<path d="M13.8334 19V15C13.8334 14.7239 14.0572 14.5 14.3334 14.5C14.6095 14.5 14.8334 14.7239 14.8334 15V19C14.8334 19.2761 14.6095 19.5 14.3334 19.5C14.0572 19.5 13.8334 19.2761 13.8334 19Z" fill="#6B6671"/>
<path d="M17.1666 19V15C17.1666 14.7239 17.3905 14.5 17.6666 14.5C17.9428 14.5 18.1666 14.7239 18.1666 15V19C18.1666 19.2761 17.9428 19.5 17.6666 19.5C17.3905 19.5 17.1666 19.2761 17.1666 19Z" fill="#6B6671"/>
</svg>
