<svg width="31" height="24" viewBox="0 0 31 24" fill="none" xmlns="http://www.w3.org/2000/svg">
<path d="M9.39603 5.27847C8.72434 5.25949 8.08671 4.98645 7.61849 4.51732C7.15029 4.04819 6.88834 3.41993 6.88834 2.76592C6.88834 2.1119 7.15029 1.48361 7.61849 1.01449C8.08671 0.54536 8.72434 0.272339 9.39603 0.253342H25.8272C26.4989 0.272339 27.1366 0.54536 27.6048 1.01449C28.0729 1.48361 28.3349 2.1119 28.3349 2.76592C28.3349 3.41993 28.0729 4.04819 27.6048 4.51732C27.1366 4.98645 26.4989 5.25949 25.8272 5.27847H9.39603ZM2.8249 9.64605C3.33571 9.64605 3.83505 9.49862 4.25977 9.22242C4.68448 8.94622 5.01553 8.55365 5.211 8.09434C5.40648 7.63503 5.45761 7.12963 5.35797 6.64205C5.25832 6.15445 5.01232 5.70655 4.65112 5.35503C4.28993 5.00348 3.82973 4.76408 3.32876 4.66708C2.82776 4.57009 2.30845 4.61986 1.83652 4.81011C1.3646 5.00036 0.961237 5.32255 0.677446 5.73591C0.393657 6.14929 0.242188 6.63526 0.242188 7.13241C0.243919 7.79796 0.516803 8.43571 1.00097 8.90572C1.48513 9.37574 2.14106 9.63971 2.8249 9.63971V9.64605ZM5.17221 18.5276C4.48724 18.5276 3.83028 18.7924 3.34593 19.2638C2.86158 19.7352 2.5895 20.3746 2.5895 21.0412C2.5895 21.7079 2.86158 22.3473 3.34593 22.8186C3.83028 23.2899 4.48724 23.5549 5.17221 23.5549H21.6012C22.2862 23.5549 22.9431 23.2899 23.4274 22.8186C23.9119 22.3473 24.1839 21.7079 24.1839 21.0412C24.1839 20.3746 23.9119 19.7352 23.4274 19.2638C22.9431 18.7924 22.2862 18.5276 21.6012 18.5276H5.17221ZM8.92747 9.39153C8.58213 9.38175 8.23829 9.43951 7.91631 9.56137C7.59434 9.68326 7.30074 9.86678 7.05293 10.101C6.8051 10.3353 6.6081 10.6156 6.47358 10.9253C6.33904 11.235 6.26973 11.5678 6.26973 11.9041C6.26973 12.2403 6.33904 12.5732 6.47358 12.8829C6.6081 13.1926 6.8051 13.4728 7.05293 13.7071C7.30074 13.9414 7.59434 14.1249 7.91631 14.2468C8.23829 14.3687 8.58213 14.4264 8.92747 14.4167H22.0697C22.4152 14.4264 22.7589 14.3687 23.081 14.2468C23.4029 14.1249 23.6965 13.9414 23.9443 13.7071C24.1921 13.4728 24.3892 13.1926 24.5236 12.8829C24.6581 12.5732 24.7274 12.2403 24.7274 11.9041C24.7274 11.5678 24.6581 11.235 24.5236 10.9253C24.3892 10.6156 24.1921 10.3353 23.9443 10.101C23.6965 9.86678 23.4029 9.68326 23.081 9.56137C22.7589 9.43951 22.4152 9.38175 22.0697 9.39153H8.92747ZM28.1745 14.1621C27.6636 14.1617 27.1639 14.3088 26.7389 14.5849C26.3136 14.8609 25.9824 15.2535 25.7866 15.7128C25.5909 16.1722 25.5395 16.6778 25.6391 17.1656C25.7387 17.6534 25.9848 18.1015 26.3461 18.4532C26.7075 18.8048 27.1678 19.0443 27.6691 19.1412C28.1701 19.2381 28.6897 19.1882 29.1616 18.9976C29.6337 18.8071 30.0371 18.4846 30.3206 18.0709C30.6042 17.6572 30.7554 17.171 30.755 16.6736C30.7559 16.3433 30.6898 16.016 30.5604 15.7106C30.4311 15.4051 30.2413 15.1275 30.0016 14.8936C29.7618 14.6597 29.477 14.4742 29.1635 14.3475C28.8501 14.2209 28.5141 14.1557 28.1745 14.1557V14.1621Z" fill="#CA3884"/>
</svg>
